<svg width="45" height="45" viewBox="0 0 45 45" fill="none" xmlns="http://www.w3.org/2000/svg">
<path d="M19.6239 0.962421C19.1013 0.207716 18.1869 -0.155151 17.3015 0.062511C7.11222 2.57354 0 11.6743 0 22.1974C0 34.7672 10.2328 45 22.8026 45C33.3257 45 42.4264 37.8878 44.9375 27.6984C45.1552 26.8131 44.7923 25.8986 44.0376 25.3761C43.2973 24.8681 42.2958 24.8827 41.5555 25.4052C38.8703 27.3066 35.7206 28.3226 32.4403 28.3226C23.746 28.3226 16.6773 21.254 16.6773 12.5596C16.6774 9.27939 17.6934 6.12965 19.5948 3.44447C20.1173 2.70421 20.1319 1.70268 19.6239 0.962421Z" fill="#252422"/>
</svg>
