<svg width="1232" height="493" viewBox="0 0 1232 493" fill="none" xmlns="http://www.w3.org/2000/svg">
<path d="M402.515 71.0855V84.2945H436.416V195.5H452.653V84.2945H486.733V71.0855H402.515ZM366.291 84.2945V125.885H320.971V139.272H366.291V182.112H315.618V195.5H382.528V70.907H315.618V84.2945H366.291ZM217.537 167.832H271.779L281.771 195.5H298.9L253.936 71.7995H235.202L190.416 195.5H207.545L217.537 167.832ZM222.176 154.623L244.658 91.7915L267.14 154.623H222.176ZM44.6719 71.978V195.5H60.9088V103.394L101.947 195.5H113.366L154.583 103.215V195.5H170.82V71.978H153.334L107.657 174.08L61.9794 71.978H44.6719Z" fill="white"/>
<path d="M190.697 237.651V281.919H188.589C187.272 264.792 179.897 239.759 151.451 239.759H150.134L79.5447 405.764C74.0134 418.676 76.1206 422.892 88.2366 422.892V425H42.4062V422.892C53.7322 422.892 57.4197 420.52 61.6339 410.771L134.33 239.759H123.531C92.4509 239.759 76.1206 265.319 66.375 280.602H64.0045L84.2858 237.651H190.697ZM208.764 398.65C224.304 380.732 237.21 356.226 237.21 341.47C237.21 333.038 232.996 328.822 227.728 328.822C222.46 328.822 216.402 333.302 212.451 341.734C206.393 355.172 205.34 380.205 208.764 398.65ZM181.634 332.775H154.768L160.563 319.6H189.009C184.005 330.93 164.514 378.624 164.514 404.183C164.514 415.25 168.201 420.784 175.839 420.784C181.634 420.784 188.482 417.622 195.331 412.088C189.536 392.589 201.389 356.753 214.295 333.829C221.407 321.181 227.201 315.911 233.786 315.911C239.844 315.911 242.741 320.127 242.741 329.086C242.741 348.585 228.518 379.941 209.29 401.812C210.871 408.136 214.558 420.784 222.723 420.784C236.157 420.784 253.54 389.691 258.018 380.996C267.5 363.078 271.715 347.267 271.715 333.038C271.715 328.295 271.451 323.816 270.398 319.6H288.572C277.773 345.686 269.081 364.922 260.652 380.732C244.058 412.088 231.152 426.054 214.295 426.054C204.813 426.054 199.018 421.574 196.121 414.46C187.165 421.574 177.42 426.054 168.201 426.054C155.295 426.054 147.13 417.622 147.13 403.92C147.13 388.373 157.929 365.976 181.634 332.775ZM359.571 392.326L361.678 393.38C348.772 414.723 331.651 426.317 312.687 426.317C292.142 426.317 280.026 412.879 280.026 389.427C280.026 351.483 312.16 315.911 347.718 315.911C363.785 315.911 373.53 323.289 373.53 335.146C373.53 358.334 336.392 376.779 296.62 373.881C295.829 378.097 295.566 382.576 295.566 386.792C295.566 407.609 305.048 419.466 321.379 419.466C335.602 419.466 348.508 410.507 359.571 392.326ZM343.767 318.019C323.486 318.019 302.941 343.578 297.146 371.773C329.807 373.881 359.044 356.226 359.044 333.829C359.044 323.816 353.249 318.019 343.767 318.019ZM375.46 425H360.974L397.585 338.835C403.117 325.924 401.01 321.708 388.893 321.708V319.6H421.554L388.893 394.17C399.956 374.408 414.179 352.01 424.452 338.835C437.097 322.498 446.842 315.911 458.168 315.911C468.704 315.911 474.498 321.444 474.498 331.457C474.498 340.416 469.757 350.429 462.646 367.293C455.534 384.421 448.686 399.704 448.686 411.561C448.686 418.676 451.056 422.628 455.534 422.628C458.431 422.628 461.855 420.784 465.016 417.358L466.597 418.939C462.382 423.419 456.588 426.054 450.53 426.054C440.784 426.054 434.463 418.939 434.463 407.609C434.463 383.894 461.592 344.632 461.592 326.451C461.592 321.444 459.222 318.809 454.744 318.809C446.315 318.809 435.78 326.978 422.871 344.369C409.702 362.287 388.103 398.386 378.621 417.885L375.46 425ZM512.516 354.382C499.61 384.421 493.025 399.704 493.025 411.034C493.025 418.676 495.922 422.628 501.19 422.628C504.878 422.628 508.829 420.784 511.989 417.358L513.57 418.939C509.355 423.419 503.034 426.054 496.713 426.054C485.913 426.054 478.802 418.676 478.802 407.082C478.802 400.231 481.436 390.745 486.177 379.414L510.936 321.708H484.597V319.6H511.726L530.164 276.649H545.967C538.592 294.04 532.534 308.269 527.53 319.6H558.347V321.708L526.476 321.971C520.418 336.2 515.94 346.477 512.516 354.382ZM555.985 422.628C562.569 422.628 571.788 416.041 580.48 405.237C588.645 395.224 597.601 379.678 605.766 363.868C611.034 352.537 616.302 342.788 617.882 338.835C623.413 325.924 621.306 321.708 609.19 321.708V319.6H640.534C634.739 333.038 631.315 340.943 629.998 343.842C604.449 402.339 579.427 490.875 517.529 490.875C496.458 490.875 485.395 480.598 486.976 464.261H504.359C502.516 481.652 506.73 488.767 518.846 488.767C555.458 488.767 581.534 421.838 596.81 385.211C587.592 400.758 571.261 426.054 551.243 426.054C540.181 426.054 533.86 418.412 534.65 406.028C535.967 387.319 554.141 350.956 557.828 333.829C559.672 325.133 558.092 320.127 553.614 320.127C551.243 320.127 548.346 321.444 544.659 324.343L543.342 322.762C547.556 318.546 553.614 315.911 559.145 315.911C569.154 315.911 574.422 324.606 571.788 338.045C568.364 354.645 550.453 390.218 548.609 408.926C547.819 417.622 550.453 422.628 555.985 422.628ZM707.903 426.249C696.365 426.249 686.967 423.512 679.711 418.038C672.574 412.445 669.006 405.008 669.006 395.726C669.006 393.941 669.065 392.632 669.184 391.799H685.243C684.886 397.63 686.67 402.628 690.595 406.793C694.521 410.958 700.528 413.04 708.617 413.04C716.705 413.04 723.129 411.196 727.887 407.507C732.645 403.818 735.024 398.641 735.024 391.977C735.024 387.931 733.834 384.54 731.455 381.803C729.195 378.947 726.34 376.626 722.891 374.841C719.56 372.937 714.981 370.855 709.152 368.594C702.015 365.738 696.246 363.06 691.844 360.561C687.562 358.062 683.934 354.671 680.96 350.387C677.987 346.103 676.619 340.688 676.857 334.143C676.857 327.241 678.7 321.113 682.388 315.758C686.075 310.403 691.131 306.298 697.554 303.442C704.096 300.467 711.531 298.979 719.858 298.979C727.946 298.979 734.905 300.347 740.734 303.084C746.681 305.821 751.142 309.629 754.116 314.508C757.089 319.387 758.398 324.861 758.041 330.93H741.09C741.328 327.836 740.615 324.861 738.949 322.005C737.403 319.149 734.905 316.829 731.455 315.044C728.125 313.259 723.961 312.366 718.965 312.366C711.234 312.366 704.989 314.211 700.231 317.9C695.591 321.47 693.272 326.409 693.272 332.716C693.272 336.405 694.342 339.617 696.484 342.354C698.744 344.972 701.539 347.233 704.87 349.137C708.2 350.922 712.78 353.065 718.609 355.564C725.627 358.538 731.336 361.335 735.738 363.953C740.258 366.452 744.064 369.843 747.157 374.127C750.25 378.411 751.796 383.766 751.796 390.192C751.796 397.094 750.012 403.282 746.443 408.756C742.875 414.111 737.76 418.395 731.099 421.608C724.437 424.702 716.705 426.249 707.903 426.249ZM829.059 325.575C837.267 325.575 844.345 327.182 850.292 330.395C856.359 333.489 860.939 337.892 864.031 343.604C867.243 349.197 868.849 355.623 868.849 362.882C868.849 365.381 868.551 368.415 867.957 371.985C867.481 375.079 866.708 378.292 865.637 381.624H787.486C787.248 384.004 787.129 385.73 787.129 386.801C787.129 395.012 789.567 401.438 794.445 406.079C799.44 410.601 805.923 412.862 813.893 412.862C820.911 412.862 827.037 411.255 832.271 408.042C837.624 404.71 841.668 400.307 844.404 394.833H861.89C857.608 404.234 851.006 411.91 842.085 417.86C833.282 423.691 823.052 426.606 811.395 426.606C799.143 426.606 789.27 423.096 781.776 416.075C774.401 408.935 770.714 399.236 770.714 386.979C770.714 383.528 771.071 379.839 771.784 375.912C773.569 365.797 777.196 356.932 782.668 349.316C788.14 341.7 794.861 335.869 802.831 331.823C810.919 327.658 819.662 325.575 829.059 325.575ZM851.541 369.843C851.898 367.463 852.077 365.262 852.077 363.239C852.077 355.623 849.638 349.732 844.761 345.567C840.003 341.402 833.758 339.32 826.026 339.32C817.7 339.32 810.146 342.057 803.366 347.531C796.586 352.886 792.006 360.323 789.627 369.843H851.541ZM919.008 409.649L963.972 327.182H981.458L925.789 425H906.697L885.642 327.182H903.128L919.008 409.649ZM1039.72 325.575C1047.93 325.575 1055.01 327.182 1060.96 330.395C1067.02 333.489 1071.6 337.892 1074.69 343.604C1077.91 349.197 1079.51 355.623 1079.51 362.882C1079.51 365.381 1079.21 368.415 1078.62 371.985C1078.14 375.079 1077.37 378.292 1076.3 381.624H998.149C997.911 384.004 997.792 385.73 997.792 386.801C997.792 395.012 1000.23 401.438 1005.11 406.079C1010.1 410.601 1016.59 412.862 1024.56 412.862C1031.57 412.862 1037.7 411.255 1042.93 408.042C1048.29 404.71 1052.33 400.307 1055.07 394.833H1072.55C1068.27 404.234 1061.67 411.91 1052.75 417.86C1043.95 423.691 1033.72 426.606 1022.06 426.606C1009.81 426.606 999.934 423.096 992.44 416.075C985.065 408.935 981.377 399.236 981.377 386.979C981.377 383.528 981.734 379.839 982.448 375.912C984.232 365.797 987.86 356.932 993.332 349.316C998.804 341.7 1005.52 335.869 1013.49 331.823C1021.58 327.658 1030.33 325.575 1039.72 325.575ZM1062.2 369.843C1062.56 367.463 1062.74 365.262 1062.74 363.239C1062.74 355.623 1060.3 349.732 1055.42 345.567C1050.67 341.402 1044.42 339.32 1036.69 339.32C1028.36 339.32 1020.81 342.057 1014.03 347.531C1007.25 352.886 1002.67 360.323 1000.29 369.843H1062.2ZM1155.9 325.397C1166.01 325.397 1174.1 328.134 1180.17 333.608C1186.23 338.963 1189.27 346.817 1189.27 357.17C1189.27 360.978 1188.97 364.369 1188.37 367.344L1178.2 425H1162.15L1171.96 369.665C1172.43 367.166 1172.67 364.548 1172.67 361.811C1172.67 354.552 1170.65 349.018 1166.61 345.21C1162.68 341.402 1157.15 339.498 1150.01 339.498C1141.45 339.498 1134.13 342.176 1128.07 347.531C1122.12 352.886 1118.25 360.68 1116.47 370.914V370.557L1106.83 425H1090.6L1107.9 327.182H1124.14L1121.64 341.283C1125.69 336.166 1130.74 332.239 1136.81 329.502C1142.88 326.765 1149.24 325.397 1155.9 325.397Z" fill="white"/>
<mask id="mask0_3_192" style="mask-type:luminance" maskUnits="userSpaceOnUse" x="1202" y="314" width="22" height="22">
<path d="M1223.5 314.5H1202.26V335.75H1223.5V314.5Z" fill="white"/>
</mask>
<g mask="url(#mask0_3_192)">
<path d="M1207.84 316.109C1214.06 312.611 1221.94 316.266 1223.23 323.224C1224.32 329.066 1220.55 334.502 1214.7 335.543C1209.2 336.521 1203.74 332.732 1202.72 327.226C1201.89 322.718 1203.82 318.497 1207.84 316.109ZM1209.06 332.593C1210.64 333.397 1212.29 333.701 1214.07 333.494C1218.67 332.958 1222.07 328.338 1221.21 323.779C1220.34 319.173 1216.08 316.392 1211.89 316.938C1207.91 317.457 1204.65 320.973 1204.64 325.002C1204.62 328.348 1206.11 330.868 1209.06 332.593Z" fill="white"/>
<path d="M1208.39 322.244C1208.39 321.318 1208.39 320.439 1208.39 319.528C1208.55 319.52 1208.69 319.504 1208.82 319.506C1210.53 319.533 1212.25 319.551 1213.96 319.6C1214.31 319.61 1214.68 319.707 1215.02 319.818C1216.32 320.249 1216.98 321.322 1216.87 322.739C1216.77 324.051 1216.12 324.896 1214.8 325.317C1215.91 325.726 1216.38 326.644 1216.84 327.576C1217.3 328.513 1217.77 329.445 1218.27 330.46C1217.28 330.46 1216.35 330.47 1215.42 330.446C1215.31 330.444 1215.18 330.267 1215.12 330.143C1214.72 329.345 1214.34 328.536 1213.94 327.737C1213.3 326.455 1212.72 326.159 1211.23 326.351C1211.23 327.696 1211.23 329.044 1211.23 330.427C1210.29 330.427 1209.37 330.427 1208.39 330.427C1208.39 327.724 1208.39 325.008 1208.39 322.244ZM1212.93 321.585C1212.37 321.585 1211.81 321.585 1211.24 321.585C1211.24 322.514 1211.24 323.431 1211.24 324.336C1211.8 324.336 1212.33 324.379 1212.85 324.326C1213.65 324.245 1214.01 323.859 1214.06 323.153C1214.11 322.209 1213.86 321.833 1212.93 321.585Z" fill="white"/>
</g>
</svg>
